<svg width="20" height="23" viewBox="0 0 20 23" fill="none" xmlns="http://www.w3.org/2000/svg">
<path d="M16.4736 12.2164C16.4736 9.34175 18.95 7.90445 19.1405 7.81462C17.7118 5.83833 15.4259 5.56884 14.664 5.56884C12.7592 5.38917 10.9496 6.64681 9.99716 6.64681C9.04465 6.64681 7.52078 5.56884 5.99692 5.65867C3.99684 5.65867 2.09191 6.82648 1.04426 8.53327C-1.1463 12.0368 0.472806 17.247 2.56812 20.1217C3.61587 21.559 4.85402 23.0861 6.37788 22.9963C7.90175 22.9065 8.4732 22.098 10.3781 22.098C12.1877 22.098 12.7592 22.9963 14.3783 22.9963C15.9974 22.9963 17.0451 21.559 18.0928 20.2115C19.3309 18.5946 19.8071 17.0673 19.8071 16.9775C19.7119 16.7978 16.5688 15.63 16.4736 12.2164Z" fill="#010137"/>
<path d="M13.4235 3.68309C14.2807 2.69494 14.8522 1.34747 14.6617 0C13.4235 0.0898314 11.9949 0.808483 11.0425 1.7068C10.2806 2.51528 9.61388 3.95258 9.80436 5.21031C11.233 5.38997 12.5664 4.67132 13.4235 3.68309Z" fill="#010137"/>
</svg>
