<svg width="118" height="33" viewBox="0 0 118 33" fill="none" xmlns="http://www.w3.org/2000/svg">
<path d="M34.7187 20.9176C36.2513 20.9176 37.4678 20.1402 37.8249 18.6522L33.1675 18.6931V16.3458L37.7393 16.3867C37.278 15.107 36.1472 14.4374 34.7633 14.4374C34.2646 14.4179 33.7679 14.5115 33.3105 14.7112C32.8531 14.9109 32.4468 15.2116 32.1221 15.5906L29.9832 13.7306C30.577 13.0352 31.3205 12.4832 32.158 12.116C32.9956 11.7488 33.9053 11.5759 34.8191 11.6102C38.4275 11.6102 41.2175 14.1063 41.2175 17.6738C41.2175 21.2413 38.4275 23.7114 34.8191 23.7114C33.9056 23.7459 32.9962 23.5734 32.1587 23.2069C31.3213 22.8404 30.5775 22.2892 29.9832 21.5947L32.1221 19.7347C32.4325 20.1209 32.8291 20.4291 33.28 20.6345C33.7309 20.8399 34.2236 20.9369 34.7187 20.9176Z" fill="white"/>
<path d="M55.0558 17.8968V23.4768H51.8864L51.8232 22.2194C51.3424 22.7162 50.7632 23.1072 50.1226 23.3672C49.482 23.6273 48.7942 23.7508 48.1032 23.7297C44.7031 23.7297 42.0842 21.3192 42.0842 17.7777C42.0842 14.2363 44.7887 11.6323 48.5644 11.6323C52.3402 11.6323 55.0558 14.1842 55.0558 17.8968ZM51.5516 17.7071C51.5516 15.8471 50.3166 14.6046 48.5533 14.6046C46.79 14.6046 45.5773 15.8433 45.5773 17.6885C45.5773 19.5336 46.8347 20.7686 48.5756 20.7686C50.3166 20.7686 51.5367 19.5522 51.5367 17.7071H51.5516Z" fill="white"/>
<path d="M56.592 22.4055L57.7452 19.9094C59.0736 20.596 60.5466 20.9556 62.0418 20.9585C63.1318 20.9585 63.846 20.7501 63.846 20.0359C63.846 19.4258 63.2806 19.1766 61.4987 18.8827C58.121 18.3359 56.9492 17.3315 56.9492 15.3599C56.9492 12.9493 58.8575 11.6399 61.7851 11.6399C63.3996 11.6399 65.5572 12.1235 66.755 12.8377L65.5795 15.3338C64.3382 14.7268 62.9772 14.404 61.5954 14.389C60.6729 14.389 60.2748 14.6828 60.2748 15.1627C60.2748 15.6426 60.6729 15.9067 62.4138 16.2118C65.9143 16.8628 67.1308 17.9527 67.1308 19.9317C67.1308 22.3646 64.9732 23.7261 61.8261 23.7261C60.0008 23.7114 58.2058 23.2585 56.592 22.4055Z" fill="white"/>
<path d="M76.933 11.8779H80.653L76.5535 21.1481C76.3855 21.5907 76.1328 21.9963 75.8095 22.3422V27.0591H72.3499V22.3422C72.0271 22.003 71.7743 21.6036 71.6059 21.1667L67.4954 11.8667H71.2153L74.0686 19.0165L76.933 11.8779Z" fill="white"/>
<path d="M85.675 11.8779H89.1792V14.7311H85.675V23.4731H82.2117V11.837C82.2117 9.00607 83.8447 7.41019 86.7835 7.41019C87.9583 7.38538 89.1264 7.59271 90.2208 8.02027L89.5512 10.6429C88.867 10.3888 88.142 10.2627 87.4122 10.2709C86.3037 10.2857 85.7605 10.747 85.675 11.8779ZM90.7081 23.4731V7.99795H94.1677V23.4731H90.7081ZM96.6601 9.15115C96.7139 8.69908 96.9316 8.28243 97.272 7.98012C97.6124 7.67781 98.0518 7.51085 98.5071 7.51085C98.9623 7.51085 99.4018 7.67781 99.7422 7.98012C100.083 8.28243 100.3 8.69908 100.354 9.15115C100.3 9.60322 100.083 10.0199 99.7422 10.3222C99.4018 10.6245 98.9623 10.7914 98.5071 10.7914C98.0518 10.7914 97.6124 10.6245 97.272 10.3222C96.9316 10.0199 96.7139 9.60322 96.6601 9.15115ZM96.7866 23.4731V11.8779H100.246V23.4731H96.7866ZM115.68 17.7704C115.68 21.3155 113.039 23.7223 109.643 23.7223C108.404 23.7405 107.194 23.3481 106.202 22.6063V27.0703H102.672V17.8968C102.672 14.1768 105.376 11.6249 109.152 11.6249C112.928 11.6249 115.662 14.1843 115.662 17.7704H115.68ZM112.18 17.6885C112.18 15.8285 110.941 14.6046 109.204 14.6046C107.467 14.6046 106.206 15.8434 106.206 17.7071C106.206 19.5708 107.444 20.7687 109.182 20.7687C110.919 20.7687 112.161 19.5522 112.161 17.6885H112.18Z" fill="white"/>
<path d="M16.1669 15.0474L10.7469 16.1002C10.7961 15.8218 10.8864 15.5523 11.0147 15.3004C11.1432 15.0456 11.3087 14.8112 11.5058 14.6047C11.7074 14.3936 11.9408 14.2154 12.1977 14.0765C12.6031 13.8583 13.0516 13.7322 13.5114 13.7071C13.9711 13.6821 14.4307 13.7586 14.8575 13.9314C15.3976 14.1611 15.8545 14.5505 16.1669 15.0474ZM7.65557 15.5273C7.8226 14.7634 8.13451 14.0385 8.5744 13.392C9.01746 12.7487 9.5778 12.1947 10.2261 11.759C10.8972 11.2999 11.6578 10.988 12.4581 10.8438C13.2411 10.6838 14.0484 10.6838 14.8314 10.8438C15.5917 10.9989 16.3153 11.2982 16.963 11.7255C17.6035 12.1581 18.1584 12.7054 18.5998 13.34C18.9463 13.8341 19.2148 14.3786 19.3958 14.9544L23.7371 14.1026L14.9988 5.36058C14.8088 5.17049 14.5832 5.0197 14.3349 4.91682C14.0866 4.81394 13.8205 4.76099 13.5517 4.76099C13.283 4.76099 13.0168 4.81394 12.7686 4.91682C12.5203 5.0197 12.2947 5.17049 12.1047 5.36058L2.19091 15.2706C2.00082 15.4606 1.85002 15.6862 1.74714 15.9345C1.64426 16.1828 1.59131 16.4489 1.59131 16.7177C1.59131 16.9865 1.64426 17.2526 1.74714 17.5009C1.85002 17.7492 2.00082 17.9748 2.19091 18.1648L2.32855 18.3024L7.53653 17.2794C7.48447 16.6927 7.52464 16.1015 7.65557 15.5273ZM24.9237 15.2706L24.7861 15.1367L19.5781 16.1597C19.5357 16.3438 19.4559 16.5173 19.3438 16.6693C19.0998 17.0009 18.7349 17.2228 18.3282 17.2869L11.3309 18.6447C11.6562 19.0698 12.0926 19.3968 12.592 19.5895C13.0952 19.7857 13.645 19.8296 14.173 19.716C14.3669 19.6824 14.5574 19.6314 14.7421 19.5635C14.8836 19.5089 15.0205 19.443 15.1513 19.3663C15.2607 19.3003 15.3618 19.2217 15.4527 19.132C15.5382 19.0464 15.6201 18.9571 15.6982 18.8679C15.8917 18.6254 16.1495 18.4423 16.4422 18.3396C16.6811 18.2569 16.9371 18.2364 17.1862 18.2801C17.3536 18.3088 17.514 18.3694 17.6586 18.4587C17.8071 18.5514 17.9423 18.6641 18.0604 18.7935C18.1802 18.9267 18.2792 19.0772 18.3542 19.2399C18.4293 19.4051 18.4723 19.5831 18.4807 19.7644C18.4898 19.9543 18.4659 20.1443 18.41 20.3261C18.3457 20.5322 18.2364 20.7215 18.0901 20.8804C17.9395 21.0659 17.7754 21.2399 17.5991 21.4012C17.3893 21.5895 17.1613 21.7565 16.9183 21.8996C16.6246 22.0763 16.3159 22.227 15.9958 22.3498C15.5942 22.4967 15.1811 22.61 14.7607 22.6883C13.967 22.8479 13.1488 22.8415 12.3576 22.6697C11.5932 22.5068 10.8663 22.2014 10.2149 21.7694C9.56246 21.3393 8.99913 20.7874 8.5558 20.1438C8.20527 19.6328 7.939 19.0689 7.76717 18.4735L3.34782 19.344L12.0898 28.086C12.4745 28.4681 12.9947 28.6825 13.5369 28.6825C14.0791 28.6825 14.5993 28.4681 14.9839 28.086L24.9237 18.1648C25.1138 17.9748 25.2646 17.7492 25.3675 17.5009C25.4704 17.2526 25.5233 16.9865 25.5233 16.7177C25.5233 16.4489 25.4704 16.1828 25.3675 15.9345C25.2646 15.6862 25.1138 15.4606 24.9237 15.2706Z" fill="white"/>
</svg>
