<svg width="22" height="21" viewBox="0 0 22 21" fill="none" xmlns="http://www.w3.org/2000/svg">
<path opacity="0.6" d="M12.5164 10.2283C12.5164 11.221 11.6785 12.0259 10.6451 12.0259C9.61175 12.0259 8.77393 11.221 8.77393 10.2283C8.77393 9.23553 9.61175 8.43066 10.6451 8.43066C11.6785 8.43066 12.5164 9.23553 12.5164 10.2283Z" fill="#8282B2"/>
<path opacity="0.6" d="M13.8052 4.79443H7.48469C6.1089 4.79443 4.98975 5.86973 4.98975 7.19161V13.2644C4.98975 14.5863 6.1089 15.6616 7.48469 15.6616H13.8052C15.181 15.6616 16.3002 14.5863 16.3002 13.2644V7.19161C16.3002 5.86973 15.181 4.79443 13.8052 4.79443ZM10.645 13.2245C8.9253 13.2245 7.52628 11.8803 7.52628 10.228C7.52628 8.57576 8.9253 7.23156 10.645 7.23156C12.3646 7.23156 13.7636 8.57576 13.7636 10.228C13.7636 11.8803 12.3646 13.2245 10.645 13.2245ZM14.221 7.39137C13.8765 7.39137 13.5973 7.12309 13.5973 6.79208C13.5973 6.46106 13.8765 6.19279 14.221 6.19279C14.5656 6.19279 14.8448 6.46106 14.8448 6.79208C14.8448 7.12309 14.5656 7.39137 14.221 7.39137Z" fill="#8282B2"/>
<path opacity="0.6" d="M15.6766 0H5.61365C2.51835 0 0 2.41967 0 5.39369V15.0624C0 18.0364 2.51835 20.4561 5.61365 20.4561H15.6766C18.7719 20.4561 21.2903 18.0364 21.2903 15.0624V5.39369C21.2903 2.41967 18.7719 0 15.6766 0ZM17.5479 13.2645C17.5479 15.2472 15.869 16.8603 13.8054 16.8603H7.48487C5.42133 16.8603 3.74243 15.2472 3.74243 13.2645V7.19158C3.74243 5.2089 5.42133 3.59579 7.48487 3.59579H13.8054C15.869 3.59579 17.5479 5.2089 17.5479 7.19158V13.2645Z" fill="#8282B2"/>
</svg>
