<svg width="56" height="5" viewBox="0 0 56 5" fill="none" xmlns="http://www.w3.org/2000/svg">
<path d="M4.58939 2.39305C4.58939 3.23759 4.30938 3.87097 3.81942 4.2932C3.32945 4.64505 2.69949 4.8562 1.8595 4.8562C1.43954 4.8562 1.08959 4.8562 0.80957 4.78582V0.28174C1.22953 0.211356 1.64956 0.211426 2.06951 0.211426C2.83949 0.211426 3.46946 0.352123 3.88942 0.704043C4.37938 1.12628 4.58939 1.68928 4.58939 2.39305ZM3.81942 2.39305C3.81942 1.83005 3.6794 1.47813 3.39946 1.12628C3.11944 0.84474 2.69948 0.704043 2.13952 0.704043C1.92951 0.704043 1.71956 0.704043 1.57955 0.774427V4.22282C1.64956 4.22282 1.8595 4.22282 2.06951 4.22282C2.62948 4.22282 3.04943 4.08205 3.39946 3.7302C3.74941 3.37828 3.81942 3.02643 3.81942 2.39305Z" fill="#010137"/>
<path d="M8.71888 3.09672C8.71888 3.58941 8.57887 4.01164 8.29885 4.36349C8.0189 4.71541 7.59888 4.85618 7.10891 4.85618C6.61895 4.85618 6.269 4.71541 5.91898 4.36349C5.63903 4.01164 5.49902 3.65972 5.49902 3.1671C5.49902 2.67449 5.63903 2.25225 5.91898 1.90033C6.199 1.54848 6.61895 1.40771 7.10891 1.40771C7.59888 1.40771 7.9489 1.54848 8.29885 1.90033C8.57887 2.25225 8.71888 2.6041 8.71888 3.09672ZM7.9489 3.1671C7.9489 2.88564 7.8789 2.6041 7.73889 2.39302C7.59888 2.11148 7.38893 1.97072 7.10891 1.97072C6.82897 1.97072 6.61895 2.11148 6.40894 2.39302C6.269 2.6041 6.199 2.88564 6.199 3.1671C6.199 3.44864 6.269 3.7301 6.40894 3.94125C6.54895 4.22279 6.75896 4.36349 7.10891 4.36349C7.38893 4.36349 7.59888 4.22279 7.73889 3.94125C7.8789 3.7301 7.9489 3.44864 7.9489 3.1671Z" fill="#010137"/>
<path d="M14.2492 1.47803L13.1993 4.78572H12.4993L12.0793 3.37818C11.9393 3.02633 11.8693 2.67441 11.7993 2.32257C11.7293 2.67441 11.6593 3.02633 11.5194 3.37818L11.0993 4.78572H10.3994L9.41943 1.47803H10.1894L10.5394 3.02633C10.6094 3.37818 10.6794 3.7301 10.7494 4.08195C10.8194 3.80042 10.8894 3.44857 11.0293 3.02633L11.5194 1.47803H12.1493L12.5693 3.02633C12.7093 3.37818 12.7793 3.80042 12.8493 4.15234C12.9192 3.80042 12.9892 3.44857 13.0593 3.02633L13.4793 1.47803H14.2492Z" fill="#010137"/>
<path d="M18.0294 4.7858H17.3294V2.88571C17.3294 2.32264 17.1194 2.04117 16.6995 2.04117C16.4894 2.04117 16.2795 2.11156 16.1395 2.25232C15.9995 2.39302 15.9295 2.60417 15.9295 2.81533V4.7858H15.2295V2.39302C15.2295 2.11156 15.2295 1.75964 15.2295 1.47817H15.7895V1.97079C15.8595 1.83002 15.9995 1.68925 16.1395 1.54855C16.3494 1.40779 16.5594 1.3374 16.7695 1.3374C17.0494 1.3374 17.3294 1.40779 17.5394 1.61894C17.8194 1.83002 17.8894 2.25232 17.8894 2.74494V4.7858H18.0294Z" fill="#010137"/>
<path d="M20.0584 4.78562H19.3584V0H20.0584V4.78562Z" fill="#010137"/>
<path d="M24.3995 3.09672C24.3995 3.58941 24.2595 4.01164 23.9795 4.36349C23.6996 4.71541 23.2795 4.85618 22.7896 4.85618C22.2996 4.85618 21.9497 4.71541 21.5996 4.36349C21.3197 4.01164 21.1797 3.65972 21.1797 3.1671C21.1797 2.67449 21.3197 2.25225 21.5996 1.90033C21.8797 1.54848 22.2996 1.40771 22.7896 1.40771C23.2795 1.40771 23.6296 1.54848 23.9795 1.90033C24.2595 2.25225 24.3995 2.6041 24.3995 3.09672ZM23.6296 3.1671C23.6296 2.88564 23.5596 2.6041 23.4195 2.39302C23.2796 2.11148 23.0696 1.97072 22.7896 1.97072C22.5096 1.97072 22.2996 2.11148 22.0896 2.39302C21.9497 2.6041 21.8797 2.88564 21.8797 3.1671C21.8797 3.44864 21.9497 3.7301 22.0896 3.94125C22.2296 4.22279 22.4396 4.36349 22.7896 4.36349C23.0696 4.36349 23.2796 4.22279 23.4195 3.94125C23.5596 3.7301 23.6296 3.44864 23.6296 3.1671Z" fill="#010137"/>
<path d="M27.8985 4.78579H27.2687L27.1991 4.43387C26.989 4.71541 26.639 4.85618 26.2187 4.85618C25.9389 4.85618 25.6592 4.78579 25.4489 4.57464C25.3089 4.36349 25.1689 4.15241 25.1689 3.87087C25.1689 3.44864 25.3089 3.1671 25.6592 2.95602C26.0092 2.74487 26.4991 2.6041 27.0586 2.67449V2.6041C27.0586 2.18187 26.8491 1.97072 26.3585 1.97072C26.0092 1.97072 25.7288 2.0411 25.5189 2.18187L25.4489 1.68925C25.7288 1.4781 26.1491 1.40771 26.5687 1.40771C27.4086 1.40771 27.8289 1.82995 27.8289 2.74487V3.94125C27.8985 4.36349 27.8985 4.64502 27.8985 4.78579ZM27.1289 3.65972V3.1671C26.2889 3.1671 25.9389 3.37825 25.9389 3.80049C25.9389 3.94126 26.0092 4.08202 26.0788 4.22279C26.1491 4.2931 26.2889 4.36349 26.4288 4.36349C26.5687 4.36349 26.7086 4.2931 26.8491 4.22279C26.989 4.15241 27.0586 4.01164 27.1289 3.80049C27.1289 3.7301 27.1289 3.7301 27.1289 3.65972Z" fill="#010137"/>
<path d="M32.0985 4.78561H31.4687V4.22254C31.2586 4.64485 30.9085 4.85593 30.4187 4.85593C29.9983 4.85593 29.7186 4.71523 29.4389 4.36331C29.1584 4.01146 29.0186 3.65954 29.0186 3.16692C29.0186 2.60392 29.1584 2.18169 29.4389 1.82977C29.7186 1.5483 30.0686 1.33715 30.4882 1.33715C30.9085 1.33715 31.2586 1.47792 31.3984 1.75939V0H32.0985V3.94108C32.0282 4.22254 32.0985 4.50408 32.0985 4.78561ZM31.3281 3.37808V2.81508C31.3281 2.74469 31.3281 2.67431 31.3281 2.60392C31.2586 2.39277 31.1883 2.25207 31.0484 2.18169C30.9085 2.04092 30.7687 1.97054 30.5585 1.97054C30.2788 1.97054 30.0686 2.11131 29.9288 2.32246C29.7882 2.53354 29.7186 2.81508 29.7186 3.16692C29.7186 3.51884 29.7882 3.72993 29.9288 3.94108C30.0686 4.15223 30.2788 4.29293 30.5585 4.29293C30.7687 4.29293 30.9788 4.22254 31.1187 4.01146C31.2586 3.87069 31.3281 3.65954 31.3281 3.37808Z" fill="#010137"/>
<path d="M38.3272 3.09672C38.3272 3.58941 38.1873 4.01164 37.9069 4.36349C37.6272 4.71541 37.2069 4.85618 36.717 4.85618C36.2271 4.85618 35.8771 4.71541 35.527 4.36349C35.2473 4.01164 35.1074 3.65972 35.1074 3.1671C35.1074 2.67449 35.2473 2.25225 35.527 1.90033C35.8075 1.54848 36.2271 1.40771 36.717 1.40771C37.2069 1.40771 37.5569 1.54848 37.9069 1.90033C38.1873 2.25225 38.3272 2.6041 38.3272 3.09672ZM37.6272 3.1671C37.6272 2.88564 37.5569 2.6041 37.417 2.39302C37.2771 2.11148 37.067 1.97072 36.7873 1.97072C36.5068 1.97072 36.2974 2.11148 36.0872 2.39302C35.9473 2.6041 35.8771 2.88564 35.8771 3.1671C35.8771 3.44864 35.9473 3.7301 36.0872 3.94125C36.2271 4.22279 36.4372 4.36349 36.7873 4.36349C37.067 4.36349 37.2771 4.22279 37.417 3.94125C37.5569 3.7301 37.6272 3.44864 37.6272 3.1671Z" fill="#010137"/>
<path d="M42.317 4.7858H41.617V2.88571C41.617 2.32264 41.4068 2.04117 40.9169 2.04117C40.7068 2.04117 40.4973 2.11156 40.3568 2.25232C40.2169 2.39302 40.1473 2.60417 40.1473 2.81533V4.7858H39.4473V2.39302C39.4473 2.11156 39.4473 1.75964 39.4473 1.47817H40.077V1.97079C40.1473 1.83002 40.2872 1.68925 40.427 1.54855C40.6372 1.40779 40.8467 1.3374 41.1271 1.3374C41.4068 1.3374 41.6873 1.40779 41.8967 1.61894C42.1772 1.83002 42.2468 2.25232 42.2468 2.74494V4.7858H42.317Z" fill="#010137"/>
<path d="M47.2144 2.04126H46.3745V3.65988C46.3745 4.08218 46.5144 4.29326 46.7941 4.29326C46.934 4.29326 47.0043 4.29326 47.1441 4.29326V4.85633C47.0043 4.92665 46.7941 4.92665 46.584 4.92665C46.3042 4.92665 46.0941 4.85633 45.8839 4.64518C45.744 4.43403 45.6745 4.15256 45.6745 3.73026V2.04126H45.1846V1.47825H45.6745V0.915253L46.3745 0.704102V1.54864H47.2144V2.04126Z" fill="#010137"/>
<path d="M51.1366 4.78562H50.4366V2.88546C50.4366 2.32246 50.2271 1.97054 49.8068 1.97054C49.4568 1.97054 49.2467 2.11131 49.1068 2.46316C49.1068 2.53354 49.1068 2.60393 49.1068 2.74469V4.71523H48.4067V0H49.1068V1.97054C49.3169 1.61869 49.667 1.40754 50.0866 1.40754C50.367 1.40754 50.6467 1.47792 50.8569 1.68907C51.1366 1.97054 51.2069 2.32246 51.2069 2.81508C51.1366 2.81508 51.1366 4.78562 51.1366 4.78562Z" fill="#010137"/>
<path d="M55.1266 3.02634C55.1266 3.16703 55.1266 3.23742 55.1266 3.37818H52.8866C52.8866 3.73011 53.0265 3.94119 53.2366 4.15234C53.4468 4.29311 53.6569 4.36349 53.9367 4.36349C54.2867 4.36349 54.5664 4.29311 54.8469 4.22272L54.9867 4.71534C54.707 4.85611 54.2867 4.92649 53.8671 4.92649C53.3765 4.92649 52.9569 4.78573 52.6772 4.50419C52.3967 4.22272 52.2568 3.80042 52.2568 3.3078C52.2568 2.81518 52.3967 2.39295 52.6772 2.04103C52.9569 1.68918 53.3765 1.47803 53.7968 1.47803C54.2867 1.47803 54.6367 1.68918 54.8469 2.04103C55.057 2.25218 55.1266 2.60403 55.1266 3.02634ZM54.4266 2.81518C54.4266 2.60403 54.357 2.39295 54.2867 2.25218C54.1468 2.04103 53.9367 1.97064 53.7265 1.97064C53.5171 1.97064 53.3069 2.04103 53.167 2.25218C53.0265 2.39295 52.9569 2.60403 52.9569 2.81518C52.8866 2.81518 54.4266 2.81518 54.4266 2.81518Z" fill="#010137"/>
</svg>
