<svg width="441" height="362" viewBox="0 0 441 362" fill="none" xmlns="http://www.w3.org/2000/svg">
<circle opacity="0.2" cx="213.083" cy="175.083" r="175.083" fill="#D2D2FE"/>
<circle opacity="0.2" cx="213.56" cy="174.607" r="134.643" fill="#D2D2FE"/>
<rect y="292" width="441" height="69.5052" fill="white"/>
<line x1="13.3911" y1="291.668" x2="422.254" y2="291.668" stroke="#9494E2" stroke-opacity="0.37" stroke-width="0.663968"/>
<path d="M148.349 149.5C148.178 149.608 148.074 149.797 148.074 150V230C148.074 230.327 148.339 230.592 148.667 230.592H288.667C288.994 230.592 289.259 230.327 289.259 230V150C289.259 149.797 289.155 149.608 288.984 149.5L267.984 136.166C267.802 136.05 267.571 136.043 267.381 136.147C267.192 136.251 267.074 136.45 267.074 136.667V165.706L218.667 202.588L170.259 165.706V136.667C170.259 136.45 170.141 136.251 169.952 136.147C169.762 136.043 169.531 136.05 169.349 136.166L148.349 149.5Z" fill="#010137" stroke="#010137" stroke-width="1.18508" stroke-linejoin="round"/>
<path d="M219.259 105.815C219.695 105.476 220.305 105.476 220.741 105.815L247.825 126.889C248.732 127.595 248.233 129.048 247.085 129.048H192.915C191.767 129.048 191.268 127.595 192.174 126.889L219.259 105.815Z" fill="#010137"/>
<path d="M268.667 129.349C268.667 125.852 265.831 123.016 262.333 123.016H176.333C172.836 123.016 170 125.852 170 129.349V167.575C170 169.721 171.087 171.721 172.887 172.889L215.887 200.781C217.983 202.14 220.683 202.14 222.78 200.781L265.78 172.889C267.58 171.721 268.667 169.721 268.667 167.575V129.349Z" fill="#FF7373"/>
<mask id="path-8-inside-1_742_450" fill="white">
<path d="M148 150L218 203.333L288 150"/>
</mask>
<path d="M149.151 148.489C148.317 147.853 147.125 148.014 146.489 148.849C145.853 149.683 146.014 150.875 146.849 151.511L149.151 148.489ZM218 203.333L216.849 204.845C217.529 205.363 218.471 205.363 219.151 204.845L218 203.333ZM289.151 151.511C289.986 150.875 290.147 149.683 289.511 148.849C288.875 148.014 287.683 147.853 286.849 148.489L289.151 151.511ZM146.849 151.511L216.849 204.845L219.151 201.822L149.151 148.489L146.849 151.511ZM219.151 204.845L289.151 151.511L286.849 148.489L216.849 201.822L219.151 204.845Z" fill="#FF7373" mask="url(#path-8-inside-1_742_450)"/>
</svg>
