<svg width="24" height="21" viewBox="0 0 24 21" fill="none" xmlns="http://www.w3.org/2000/svg">
<path opacity="0.6" d="M21.3683 5.09801C21.3834 5.32174 21.3834 5.54552 21.3834 5.76924C21.3834 12.5932 16.4721 20.4561 7.49555 20.4561C4.73004 20.4561 2.16102 19.609 0 18.1388C0.392926 18.1867 0.770687 18.2027 1.17873 18.2027C3.4606 18.2027 5.5612 17.3877 7.23863 15.9973C5.09273 15.9493 3.2944 14.4631 2.6748 12.4175C2.97706 12.4654 3.27928 12.4974 3.59666 12.4974C4.0349 12.4974 4.47318 12.4334 4.88117 12.3216C2.64461 11.8421 0.967127 9.76456 0.967127 7.2555V7.1916C1.61692 7.57515 2.37258 7.81487 3.17346 7.84679C1.85871 6.91986 0.997362 5.33773 0.997362 3.54781C0.997362 2.58895 1.23911 1.70998 1.66227 0.942872C4.06509 4.0752 7.67687 6.12077 11.7268 6.34455C11.6513 5.961 11.6059 5.56151 11.6059 5.16196C11.6059 2.31726 13.7821 0 16.4871 0C17.8925 0 19.1619 0.623269 20.0535 1.63009C21.1567 1.40636 22.2145 0.974848 23.1515 0.383554C22.7888 1.58218 22.0181 2.589 21.0056 3.22821C21.9879 3.11639 22.9399 2.82867 23.8164 2.42917C23.1516 3.45193 22.3204 4.36283 21.3683 5.09801V5.09801Z" fill="#8282B2"/>
</svg>
