<svg width="363" height="331" viewBox="0 0 363 331" fill="none" xmlns="http://www.w3.org/2000/svg">
<circle opacity="0.2" cx="187.085" cy="165.085" r="165.085" fill="#D2D2FE"/>
<circle opacity="0.2" cx="187.534" cy="164.637" r="126.954" fill="#D2D2FE"/>
<rect y="254" width="363" height="68.3381" fill="white"/>
<line x1="11.0229" y1="253.633" x2="347.57" y2="253.633" stroke="#9494E2" stroke-opacity="0.37" stroke-width="0.734818"/>
<path d="M172.718 175.344L153.702 212.923L203.193 188.468L172.718 175.344Z" fill="#D2D2FE"/>
<path d="M115.097 150.587L147.301 164.453L242.652 87.5559L115.097 150.587Z" fill="#D2D2FE"/>
<path d="M172.717 175.347L230.337 200.109L242.652 87.5554L172.717 175.347Z" fill="#D2D2FE"/>
<line x1="106.332" y1="197.044" x2="134.097" y2="167.957" stroke="#D2D2FE" stroke-width="2.64422"/>
<line x1="110.295" y1="207.624" x2="134.093" y2="182.504" stroke="#D2D2FE" stroke-width="2.64422"/>
<path d="M224.17 175.241H153.762C148.922 175.241 144.961 171.281 144.961 166.441V113.635C144.961 108.794 148.922 104.834 153.762 104.834H224.17C229.01 104.834 232.971 108.794 232.971 113.635V166.441C232.971 171.281 229.01 175.241 224.17 175.241Z" fill="#010137"/>
<path d="M224.17 104.834H153.762C148.922 104.834 144.961 108.794 144.961 113.635L188.966 144.438L232.971 113.635C232.971 108.794 229.01 104.834 224.17 104.834Z" fill="#D45D58"/>
<line x1="145.164" y1="113.078" x2="189.968" y2="144.37" stroke="#D45D58" stroke-width="0.711186"/>
<line x1="233.352" y1="112.948" x2="189.259" y2="144.24" stroke="#D45D58" stroke-width="0.711186"/>
</svg>
