<svg width="328" height="253" viewBox="0 0 328 253" fill="none" xmlns="http://www.w3.org/2000/svg">
<circle opacity="0.2" cx="164" cy="122.17" r="122.17" fill="#D2D2FE"/>
<circle opacity="0.2" cx="164.332" cy="121.838" r="93.9514" fill="#D2D2FE"/>
<rect y="190.559" width="328" height="61.749" fill="white"/>
<line x1="9.95947" y1="190.227" x2="314.057" y2="190.227" stroke="#9494E2" stroke-opacity="0.37" stroke-width="0.663968"/>
<path d="M197.448 142.753H131.715C127.196 142.753 123.499 139.055 123.499 134.536V85.2366C123.499 80.7175 127.196 77.02 131.715 77.02H197.448C201.967 77.02 205.665 80.7175 205.665 85.2366V134.536C205.665 139.055 201.967 142.753 197.448 142.753Z" fill="#010137"/>
<path d="M197.448 77.02H131.715C127.196 77.02 123.499 80.7175 123.499 85.2366L164.582 113.995L205.665 85.2366C205.665 80.7175 201.967 77.02 197.448 77.02Z" fill="#D45D58"/>
<line x1="123.688" y1="84.7161" x2="165.518" y2="113.931" stroke="#D45D58" stroke-width="0.663968"/>
<line x1="206.022" y1="84.595" x2="164.856" y2="113.81" stroke="#D45D58" stroke-width="0.663968"/>
</svg>
