<svg width="29" height="5" viewBox="0 0 29 5" fill="none" xmlns="http://www.w3.org/2000/svg">
<path d="M4.38948 2.42726C4.38948 3.0157 4.16998 3.53057 3.87739 3.89839C3.43845 4.33971 2.92635 4.56033 2.26791 4.56033C1.60947 4.56033 1.09737 4.33971 0.658438 3.89839C0.219504 3.45701 0 2.94213 0 2.2802C0 1.61819 0.219504 1.10332 0.658438 0.661935C1.09737 0.220622 1.60947 0 2.26791 0C2.56051 0 2.85318 0.0735643 3.14578 0.220622C3.43845 0.367749 3.65788 0.514877 3.80422 0.735498L3.43845 1.10332C3.14578 0.735498 2.78001 0.588441 2.19474 0.588441C1.75581 0.588441 1.31687 0.735498 1.0242 1.10332C0.658436 1.3975 0.512102 1.83882 0.512102 2.35369C0.512102 2.86857 0.658436 3.30995 1.0242 3.60414C1.39004 3.8984 1.75581 4.11902 2.19474 4.11902C2.70685 4.11902 3.07261 3.97189 3.43845 3.60414C3.65788 3.38352 3.80422 3.08926 3.80422 2.72151H2.19474V2.20664H4.31632C4.38949 2.20664 4.38948 2.35369 4.38948 2.42726Z" fill="#010137"/>
<path d="M7.82808 0.589097H5.85284V1.9866H7.68182V2.50155H5.85284V3.89905H7.82808V4.41393H5.26758V0.0742188H7.82808V0.589097Z" fill="#010137"/>
<path d="M10.1684 4.41393H9.58313V0.589097H8.4126V0.0742188H11.4121V0.589097H10.1684V4.41393Z" fill="#010137"/>
<path d="M13.6104 4.41393V0.0742188H14.1956V4.41393H13.6104Z" fill="#010137"/>
<path d="M16.6819 4.41393H16.0967V0.589097H14.853V0.0742188H17.9256V0.589097H16.6819V4.41393Z" fill="#010137"/>
<path d="M23.6332 3.89839C23.1943 4.33971 22.6822 4.56033 22.0238 4.56033C21.3653 4.56033 20.8532 4.33971 20.4143 3.89839C19.9754 3.45701 19.7559 2.94213 19.7559 2.2802C19.7559 1.61819 19.9754 1.10332 20.4143 0.661935C20.8532 0.220622 21.3653 0 22.0238 0C22.6822 0 23.1943 0.220622 23.6332 0.661935C24.0722 1.10332 24.2917 1.61819 24.2917 2.2802C24.2917 2.86857 24.0722 3.45701 23.6332 3.89839ZM20.7801 3.53058C21.0727 3.82483 21.5117 4.04545 21.9506 4.04545C22.3895 4.04545 22.8285 3.8984 23.1211 3.53058C23.4137 3.23639 23.6332 2.79508 23.6332 2.2802C23.6332 1.76525 23.4869 1.32394 23.1211 1.02975C22.8285 0.735499 22.3895 0.514878 21.9506 0.514878C21.5117 0.514878 21.0727 0.661935 20.7801 1.02975C20.4875 1.32394 20.268 1.76525 20.268 2.2802C20.3411 2.79508 20.4875 3.16283 20.7801 3.53058Z" fill="#010137"/>
<path d="M25.0947 4.41393V0.0742188H25.7532L27.8747 3.45774V2.64861V0.0742188H28.46V4.41393H27.8747L25.6068 0.883283V1.69242V4.41393H25.0947Z" fill="#010137"/>
</svg>
