<svg width="21" height="24" viewBox="0 0 21 24" fill="none" xmlns="http://www.w3.org/2000/svg">
<path d="M0.45354 0.30127C0.181364 0.576149 0 1.03419 0 1.58386V21.6471C0 22.1968 0.181364 22.6549 0.45354 22.9297L0.544265 23.0213L11.7926 11.753V11.4781L0.45354 0.30127Z" fill="url(#paint0_linear_731_1793)"/>
<path d="M15.5116 15.5078L11.7925 11.7516V11.4769L15.5116 7.7207L15.6023 7.81233L20.0473 10.3775C21.3173 11.1103 21.3173 12.3013 20.0473 13.0342L15.5116 15.5078C15.6023 15.5078 15.5116 15.5078 15.5116 15.5078Z" fill="url(#paint1_linear_731_1793)" fill-opacity="0.1"/>
<path d="M15.6026 15.5079L11.7926 11.6602L0.453613 22.9285C0.907153 23.3866 1.54214 23.3866 2.3585 23.0201L15.6026 15.5079Z" fill="url(#paint2_linear_731_1793)"/>
<path d="M15.6026 7.81343L2.3585 0.301133C1.54214 -0.15691 0.907153 -0.0652829 0.453613 0.39276L11.7926 11.6612L15.6026 7.81343Z" fill="url(#paint3_linear_731_1793)"/>
<defs>
<linearGradient id="paint0_linear_731_1793" x1="10.7768" y1="21.8496" x2="-4.45497" y2="6.58931" gradientUnits="userSpaceOnUse">
<stop stop-color="#00A0FF"/>
<stop offset="0.0066" stop-color="#00A1FF"/>
<stop offset="0.2601" stop-color="#00BEFF"/>
<stop offset="0.5122" stop-color="#00D2FF"/>
<stop offset="0.7604" stop-color="#00DFFF"/>
<stop offset="1" stop-color="#00E3FF"/>
</linearGradient>
<linearGradient id="paint1_linear_731_1793" x1="21.6943" y1="11.6142" x2="-0.307965" y2="11.6142" gradientUnits="userSpaceOnUse">
<stop stop-color="#FFE000"/>
<stop offset="0.4087" stop-color="#FFBD00"/>
<stop offset="0.7754" stop-color="#FFA500"/>
<stop offset="1" stop-color="#FF9C00"/>
</linearGradient>
<linearGradient id="paint2_linear_731_1793" x1="5.93057" y1="17.1022" x2="-14.7251" y2="-3.5919" gradientUnits="userSpaceOnUse">
<stop stop-color="#FF3A44"/>
<stop offset="1" stop-color="#C31162"/>
</linearGradient>
<linearGradient id="paint3_linear_731_1793" x1="-9.9749" y1="22.0949" x2="-0.751302" y2="12.8541" gradientUnits="userSpaceOnUse">
<stop stop-color="#32A071"/>
<stop offset="0.0685" stop-color="#2DA771"/>
<stop offset="0.4762" stop-color="#15CF74"/>
<stop offset="0.8009" stop-color="#06E775"/>
<stop offset="1" stop-color="#00F076"/>
</linearGradient>
</defs>
</svg>
