<svg width="57" height="14" viewBox="0 0 57 14" fill="none" xmlns="http://www.w3.org/2000/svg">
<path d="M8.64673 10.2868H7.03683L6.19685 7.54208H3.187L2.34702 10.2868H0.807129L3.81697 0.926758H5.63688L8.64673 10.2868ZM5.9869 6.41608L5.21692 3.95292C5.14692 3.67145 5.00691 3.10845 4.72696 2.19353C4.65696 2.61576 4.51695 3.17876 4.30694 3.95292L3.46702 6.41608H5.9869Z" fill="#010137"/>
<path d="M16.4146 6.83909C16.4146 7.96509 16.1346 8.88001 15.5046 9.58371C14.9447 10.1468 14.2447 10.4986 13.4747 10.4986C12.5648 10.4986 11.9348 10.1468 11.5849 9.51339V13.1026H10.1149V5.7834C10.1149 5.0797 10.1149 4.30555 10.0449 3.53139H11.3749L11.4449 4.58701C11.9348 3.81293 12.7048 3.39062 13.6847 3.39062C14.4547 3.39062 15.1547 3.67216 15.6447 4.30555C16.1346 4.93893 16.4146 5.7834 16.4146 6.83909ZM14.8747 6.90947C14.8747 6.27609 14.7347 5.71308 14.4547 5.29078C14.1047 4.86855 13.6847 4.65739 13.1248 4.65739C12.7748 4.65739 12.4248 4.79816 12.1448 5.00932C11.8648 5.29078 11.6548 5.57232 11.5849 5.99455C11.5149 6.2057 11.5149 6.34647 11.5149 6.41678V7.54286C11.5149 8.03547 11.6548 8.45771 11.9348 8.80963C12.2149 9.16148 12.6348 9.30224 13.1248 9.30224C13.6847 9.30224 14.1047 9.09109 14.4547 8.66886C14.7347 8.17624 14.8747 7.61324 14.8747 6.90947Z" fill="#010137"/>
<path d="M24.1153 6.83909C24.1153 7.96509 23.8353 8.88001 23.2053 9.58371C22.6454 10.1468 21.9454 10.4986 21.1754 10.4986C20.2654 10.4986 19.6355 10.1468 19.2855 9.51339V13.1026H17.8155V5.7834C17.8155 5.0797 17.8155 4.30555 17.7456 3.53139H19.0755L19.1455 4.58701C19.6354 3.81293 20.4054 3.39062 21.3854 3.39062C22.1553 3.39062 22.8553 3.67216 23.3453 4.30555C23.8353 4.93893 24.1153 5.7834 24.1153 6.83909ZM22.5754 6.90947C22.5754 6.27609 22.4354 5.71308 22.1553 5.29078C21.8054 4.86855 21.3854 4.65739 20.8255 4.65739C20.4754 4.65739 20.1255 4.79816 19.8455 5.00932C19.5655 5.29078 19.3555 5.57232 19.2855 5.99455C19.2155 6.2057 19.2155 6.34647 19.2155 6.41678V7.54286C19.2155 8.03547 19.3555 8.45771 19.6355 8.80963C19.9155 9.16148 20.3354 9.30224 20.8255 9.30224C21.3854 9.30224 21.8054 9.09109 22.1553 8.66886C22.4354 8.17624 22.5754 7.61324 22.5754 6.90947Z" fill="#010137"/>
<path d="M32.7231 7.68284C32.7231 8.457 32.4427 9.16076 31.8825 9.65338C31.2528 10.2164 30.4129 10.4979 29.3628 10.4979C28.383 10.4979 27.5431 10.2868 26.9829 9.93492L27.3329 8.66815C27.9634 9.09038 28.733 9.30153 29.5027 9.30153C30.0628 9.30153 30.4831 9.16077 30.8332 8.94961C31.1129 8.66815 31.3231 8.38661 31.3231 7.894C31.3231 7.54208 31.1832 7.19023 30.9027 6.90869C30.623 6.62722 30.2027 6.41607 29.6432 6.20499C28.033 5.57161 27.1931 4.72707 27.1931 3.53068C27.1931 2.75653 27.4728 2.12314 28.033 1.63053C28.5932 1.13791 29.3628 0.926758 30.3433 0.926758C31.1832 0.926758 31.8825 1.06753 32.4427 1.34899L32.0231 2.47507C31.4629 2.19353 30.9027 2.05276 30.273 2.05276C29.7128 2.05276 29.3628 2.19353 29.0128 2.47507C28.733 2.68615 28.6627 2.96768 28.6627 3.31953C28.6627 3.67145 28.8033 4.0233 29.083 4.23445C29.3628 4.44553 29.7831 4.72707 30.4129 4.93822C31.1832 5.29007 31.8129 5.64192 32.163 6.06422C32.5826 6.48646 32.7231 7.04946 32.7231 7.68284Z" fill="#010137"/>
<path d="M37.6944 4.65687H36.0842V7.9645C36.0842 8.80903 36.3646 9.23127 36.9241 9.23127C37.2046 9.23127 37.414 9.23127 37.5546 9.16095L37.6242 10.287C37.3444 10.4277 36.9241 10.4277 36.4342 10.4277C35.874 10.4277 35.3842 10.2166 35.0341 9.86465C34.6841 9.5128 34.5442 8.87942 34.5442 8.03488V4.65687H33.5645V3.53087H34.5442V2.2641L36.0146 1.8418V3.53087H37.6242C37.6944 3.53087 37.6944 4.65687 37.6944 4.65687Z" fill="#010137"/>
<path d="M45.1146 6.83909C45.1146 7.8947 44.8348 8.73924 44.2051 9.37263C43.5746 10.0764 42.7347 10.4282 41.7549 10.4282C40.7751 10.4282 40.0048 10.0764 39.375 9.44301C38.7453 8.80963 38.4648 7.96509 38.4648 6.97985C38.4648 5.92416 38.7453 5.0797 39.375 4.37593C40.0048 3.74254 40.7751 3.39062 41.8252 3.39062C42.805 3.39062 43.5746 3.74254 44.2051 4.37593C44.8348 5.00931 45.1146 5.85378 45.1146 6.83909ZM43.5746 6.90947C43.5746 6.27609 43.4347 5.7834 43.155 5.29078C42.8753 4.72778 42.3847 4.51663 41.8252 4.51663C41.1947 4.51663 40.7751 4.79816 40.4251 5.29078C40.1454 5.71308 40.0048 6.27609 40.0048 6.90947C40.0048 7.54286 40.1454 8.03547 40.4251 8.52809C40.7751 9.09109 41.1947 9.30224 41.7549 9.30224C42.3151 9.30224 42.805 9.02071 43.0847 8.45771C43.4347 8.03547 43.5746 7.54286 43.5746 6.90947Z" fill="#010137"/>
<path d="M49.9453 4.86855C49.8054 4.86855 49.6656 4.79816 49.4554 4.79816C48.8952 4.79816 48.5452 5.00932 48.2655 5.43155C47.9857 5.7834 47.9154 6.2057 47.9154 6.7687V10.2875H46.4458V5.6427C46.4458 4.86855 46.4458 4.16478 46.3755 3.53139H47.7053L47.7756 4.79816H47.8452C47.9857 4.37593 48.2655 4.02401 48.6155 3.74255C48.9655 3.53139 49.3155 3.39062 49.6656 3.39062C49.8054 3.39062 49.9453 3.39062 50.0156 3.39062C49.9453 3.46101 49.9453 4.86855 49.9453 4.86855Z" fill="#010137"/>
<path d="M56.663 6.62786C56.663 6.90933 56.663 7.12048 56.5928 7.33156H52.1127C52.1127 7.96495 52.3229 8.52802 52.7432 8.87987C53.0925 9.1614 53.5831 9.37249 54.2129 9.37249C54.8426 9.37249 55.4731 9.23172 56.0326 9.02064L56.2427 10.0763C55.613 10.3578 54.8426 10.4985 54.0027 10.4985C52.9527 10.4985 52.1127 10.217 51.5533 9.58364C50.9931 8.95025 50.6431 8.1761 50.6431 7.12048C50.6431 6.13517 50.9228 5.22033 51.483 4.58694C52.0432 3.88317 52.8128 3.53125 53.8629 3.53125C54.8426 3.53125 55.5427 3.88317 56.0326 4.58694C56.4529 5.00917 56.663 5.78333 56.663 6.62786ZM55.1927 6.20556C55.1927 5.78333 55.1231 5.36109 54.9129 5.07956C54.6325 4.65732 54.2825 4.44617 53.723 4.44617C53.2331 4.44617 52.8128 4.65732 52.5331 5.07956C52.2526 5.43141 52.1127 5.78333 52.1127 6.27594L55.1927 6.20556Z" fill="#010137"/>
</svg>
