<svg width="63" height="14" viewBox="0 0 63 14" fill="none" xmlns="http://www.w3.org/2000/svg">
<path d="M19.7546 4.0912C17.9988 4.0912 16.6089 5.41514 16.6089 7.18046C16.6089 8.94579 17.9988 10.2698 19.7546 10.2698C21.5104 10.2698 22.9004 8.94579 22.9004 7.18046C22.9004 5.41514 21.5104 4.0912 19.7546 4.0912ZM19.7546 9.09291C18.8036 9.09291 17.9988 8.28378 17.9988 7.18046C17.9988 6.07714 18.8036 5.26808 19.7546 5.26808C20.7057 5.26808 21.5104 6.00358 21.5104 7.18046C21.5104 8.28378 20.7057 9.09291 19.7546 9.09291ZM12.9509 4.0912C11.1951 4.0912 9.80512 5.41514 9.80512 7.18046C9.80512 8.94579 11.1951 10.2698 12.9509 10.2698C14.7067 10.2698 16.0967 8.94579 16.0967 7.18046C16.0236 5.41514 14.6335 4.0912 12.9509 4.0912ZM12.9509 9.09291C11.9999 9.09291 11.1951 8.28378 11.1951 7.18046C11.1951 6.07714 11.9999 5.26808 12.9509 5.26808C13.902 5.26808 14.7067 6.00358 14.7067 7.18046C14.7067 8.28378 13.902 9.09291 12.9509 9.09291ZM4.83037 5.04739V6.3714H7.97615C7.90298 7.1069 7.61038 7.62178 7.24462 7.9896C6.80561 8.43091 6.07407 8.94579 4.83037 8.94579C2.85513 8.94579 1.39192 7.40115 1.39192 5.41514C1.39192 3.42919 2.92823 1.88456 4.83037 1.88456C5.85457 1.88456 6.65935 2.32587 7.24462 2.84075L8.19565 1.88456C7.39088 1.14899 6.36668 0.560547 4.90354 0.560547C2.1967 0.560547 0.00195312 2.69362 0.00195312 5.34157C0.00195312 7.9896 2.26986 10.1227 4.90354 10.1227C6.36668 10.1227 7.46405 9.68135 8.26882 8.79866C9.14669 7.91603 9.43936 6.73915 9.43936 5.70939C9.43936 5.41514 9.43935 5.12095 9.36619 4.90026C9.21985 5.04739 4.83037 5.04739 4.83037 5.04739ZM38.0439 6.07714C37.7515 5.41514 37.0198 4.0912 35.3372 4.0912C33.7276 4.0912 32.4112 5.34157 32.4112 7.18046C32.4112 8.94579 33.7276 10.2698 35.4834 10.2698C36.9467 10.2698 37.7515 9.3871 38.117 8.87222L37.0198 8.13665C36.6543 8.6516 36.215 9.01935 35.4834 9.01935C34.8255 9.01935 34.3131 8.72509 33.9476 8.06316L38.117 6.3714C38.1908 6.44489 38.0439 6.07714 38.0439 6.07714ZM33.8007 7.1069C33.8007 5.93002 34.7517 5.26808 35.4103 5.26808C35.9227 5.26808 36.4343 5.56226 36.5812 5.93001L33.8007 7.1069ZM30.3624 10.1227H31.7526V1.00186H30.3624V10.1227ZM28.1678 4.7532C27.802 4.38538 27.2167 4.0912 26.4852 4.0912C24.9489 4.0912 23.4857 5.4887 23.4857 7.18046C23.4857 8.94579 24.9489 10.2698 26.4852 10.2698C27.2167 10.2698 27.802 9.97554 28.0947 9.53423H28.1678V9.97554C28.1678 11.1524 27.5094 11.8144 26.4852 11.8144C25.6804 11.8144 25.0951 11.226 24.9489 10.7111L23.7783 11.226C24.1441 12.0351 25.022 13.0649 26.5584 13.0649C28.1678 13.0649 29.5576 12.1086 29.5576 9.82841V4.23825H28.241L28.1678 4.7532ZM26.5584 9.09291C25.6072 9.09291 24.8025 8.28378 24.8025 7.25403C24.8025 6.15071 25.6072 5.34157 26.5584 5.34157C27.5094 5.34157 28.241 6.15071 28.241 7.25403C28.241 8.28378 27.5094 9.09291 26.5584 9.09291ZM44.409 1.00186H41.1168V10.1227H42.507V6.66559H44.409C45.9454 6.66559 47.408 5.56227 47.408 3.87051C47.4818 2.10518 45.9454 1.00186 44.409 1.00186ZM44.4821 5.41514H42.507V2.25231H44.4821C45.5061 2.25231 46.0916 3.06144 46.0916 3.79694C46.0916 4.53251 45.5061 5.41514 44.4821 5.41514ZM52.9683 4.0912C51.9443 4.0912 50.9202 4.53251 50.554 5.4887L51.7981 6.00358C52.0905 5.4887 52.5298 5.34157 53.0414 5.34157C53.7731 5.34157 54.5048 5.78296 54.5048 6.51846V6.59202C54.2855 6.44496 53.7 6.22427 53.0414 6.22427C51.725 6.22427 50.4078 6.95984 50.4078 8.28378C50.4078 9.53423 51.505 10.2698 52.676 10.2698C53.6269 10.2698 54.1386 9.82841 54.4317 9.3871H54.5048V10.1227H55.8212V6.59202C55.7481 4.97382 54.5048 4.0912 52.9683 4.0912ZM52.7491 9.09291C52.3098 9.09291 51.6519 8.87222 51.6519 8.35735C51.6519 7.62178 52.456 7.40115 53.1145 7.40115C53.7 7.40115 53.9924 7.54828 54.3586 7.69534C54.2855 8.50447 53.5538 9.09291 52.7491 9.09291ZM60.5037 4.31182L58.9672 8.28378H58.8941L57.2846 4.31182H55.8212L58.2356 9.82841L56.846 12.9178H58.3087L62.0401 4.31182H60.5037ZM48.2128 10.1227H49.6031V1.00186H48.2128V10.1227Z" fill="#010137"/>
</svg>
